<?xml version="1.0" encoding="utf-8"?>
<!-- Generator: Adobe Illustrator 23.0.2, SVG Export Plug-In . SVG Version: 6.00 Build 0)  -->
<svg version="1.1" id="Layer_1" xmlns="http://www.w3.org/2000/svg" xmlns:xlink="http://www.w3.org/1999/xlink" x="0px" y="0px"
	 viewBox="0 0 30 32" style="enable-background:new 0 0 30 32;" xml:space="preserve">
<style type="text/css">
	.st0{fill:#FFA930;}
	.st1{fill:#5A70E3;}
	.st2{fill:#3591AB;}
	.st3{fill:#E35A6D;}
</style>
<path id="Icon_material-date-range" class="st1" d="M10.2,14.4H7v3.2h3.2V14.4z M16.6,14.4h-3.2v3.2h3.2L16.6,14.4z M23,14.4h-3.2
	v3.2H23L23,14.4z M26.2,3.2h-1.6V0h-3.2v3.2H8.6V0H5.4v3.2H3.8c-1.76,0-3.18,1.43-3.18,3.19c0,0,0,0.01,0,0.01L0.6,28.8
	c0,1.77,1.43,3.2,3.2,3.2h22.4c1.77-0.01,3.19-1.43,3.2-3.2V6.4C29.39,4.64,27.97,3.21,26.2,3.2z M26.2,28.8H3.8V11.2h22.4
	L26.2,28.8z"/>
</svg>
