<?xml version="1.0" encoding="utf-8"?>
<!-- Generator: Adobe Illustrator 23.0.2, SVG Export Plug-In . SVG Version: 6.00 Build 0)  -->
<svg version="1.1" id="Layer_1" xmlns="http://www.w3.org/2000/svg" xmlns:xlink="http://www.w3.org/1999/xlink" x="0px" y="0px"
	 viewBox="0 0 30 23" style="enable-background:new 0 0 30 23;" xml:space="preserve">
<style type="text/css">
	.st0{fill:#FFA930;}
	.st1{fill:#5A70E3;}
	.st2{fill:#3591AB;}
	.st3{fill:#E35A6D;}
</style>
<g>
	<g>
		<path class="st3" d="M3.35,7.54C3.71,7.79,4.79,8.55,6.6,9.8c1.8,1.25,3.19,2.21,4.15,2.89c0.11,0.07,0.33,0.23,0.67,0.48
			c0.34,0.25,0.63,0.45,0.85,0.6c0.23,0.15,0.5,0.32,0.82,0.51c0.32,0.19,0.63,0.33,0.91,0.43c0.29,0.1,0.55,0.14,0.79,0.14h0.02
			h0.02c0.24,0,0.51-0.05,0.79-0.14c0.28-0.09,0.59-0.24,0.91-0.43c0.32-0.19,0.6-0.36,0.82-0.51c0.23-0.15,0.51-0.35,0.85-0.6
			c0.34-0.25,0.57-0.41,0.67-0.48c0.97-0.68,3.44-2.39,7.41-5.15c0.77-0.54,1.41-1.19,1.93-1.95C28.74,4.83,29,4.04,29,3.2
			c0-0.7-0.25-1.29-0.75-1.79c-0.5-0.5-1.1-0.74-1.78-0.74H3.16c-0.81,0-1.44,0.27-1.88,0.82C0.85,2.04,0.63,2.73,0.63,3.55
			c0,0.66,0.29,1.39,0.87,2.16C2.08,6.49,2.7,7.1,3.35,7.54z"/>
		<path class="st3" d="M27.42,9.23c-3.46,2.34-6.09,4.16-7.88,5.46c-0.6,0.44-1.09,0.79-1.46,1.04c-0.37,0.25-0.87,0.5-1.5,0.76
			c-0.62,0.26-1.2,0.39-1.74,0.39h-0.02H14.8c-0.54,0-1.12-0.13-1.74-0.39c-0.62-0.26-1.12-0.51-1.5-0.76
			c-0.37-0.25-0.86-0.59-1.46-1.04c-1.43-1.04-4.05-2.87-7.87-5.46c-0.6-0.4-1.13-0.86-1.6-1.38v12.57c0,0.7,0.25,1.29,0.74,1.79
			c0.5,0.5,1.09,0.74,1.79,0.74h23.31c0.7,0,1.29-0.25,1.79-0.74c0.5-0.5,0.74-1.09,0.74-1.79V7.86
			C28.55,8.36,28.02,8.82,27.42,9.23z"/>
	</g>
</g>
</svg>
