<?xml version="1.0" encoding="utf-8"?>
<!-- Generator: Adobe Illustrator 23.0.2, SVG Export Plug-In . SVG Version: 6.00 Build 0)  -->
<svg version="1.1" id="Layer_1" xmlns="http://www.w3.org/2000/svg" xmlns:xlink="http://www.w3.org/1999/xlink" x="0px" y="0px"
	 viewBox="0 0 32 18" style="enable-background:new 0 0 32 18;" xml:space="preserve">
<style type="text/css">
	.st0{fill:#FFA930;}
	.st1{fill:#5A70E3;}
	.st2{fill:#3591AB;}
	.st3{fill:#E35A6D;}
</style>
<path id="Color_Overlay" class="st3" d="M0.47,17.24C0.24,17.27,0.03,17.1,0,16.87c-0.01-0.07,0-0.13,0.02-0.2L3.16,6.67
	C3.29,6.34,3.6,6.12,3.95,6.11h24c0.35,0.01,0.67,0.23,0.8,0.56l3.23,10.01c0.08,0.21-0.02,0.45-0.23,0.54
	c-0.06,0.03-0.13,0.03-0.2,0.03L0.47,17.24z M16.3,16.11h0.03c0.81,0.01,0.85-0.99,0.83-1.4c-0.01-0.1-0.1-0.17-0.19-0.16
	c0,0,0,0,0,0c-0.18,0.01-0.46,0.02-0.69,0.03c-0.16,0-0.44-0.01-0.61-0.02c-0.1-0.01-0.18,0.06-0.19,0.16c0,0,0,0,0,0
	C15.46,15.11,15.5,16.11,16.3,16.11L16.3,16.11z M16.31,12.11h0.04c0.08,0,0.16,0,0.24,0.01c0.14,0.01,0.27,0.03,0.4,0.07
	c0.01,0.01,0.03,0.01,0.04,0.03c0.02,0.02,0.03,0.05,0.02,0.08c-0.02,0.07-0.13,0.16-0.25,0.25c-0.18,0.12-0.29,0.32-0.31,0.53v0.73
	c0,0.4,0.82,0.78,1.78,0.55c1.1-0.13,1.9-1.09,1.84-2.2c0-0.17-0.02-0.34-0.05-0.51c-0.05-0.28-0.74-0.65-1.21-1.17
	c-0.28-0.32-0.51-0.68-0.69-1.06c-0.04-0.08-0.07-0.16-0.1-0.24c-0.04-0.14-0.1-0.22-0.15-0.17s-0.29-0.01-0.53-0.12
	c-0.24-0.11-0.4-0.26-0.35-0.33l0.09-0.13c0.06-0.09,0.12-0.17,0.18-0.25c0.1-0.14-0.05-0.47-0.38-0.74c-0.35-0.26-0.83-0.26-1.18,0
	c-0.31,0.26-0.46,0.59-0.35,0.73c0.06,0.08,0.12,0.17,0.18,0.26l0.09,0.13c0.05,0.07-0.11,0.22-0.35,0.33
	c-0.25,0.11-0.48,0.17-0.53,0.12s-0.11,0.04-0.15,0.17c-0.03,0.08-0.06,0.16-0.1,0.24c-0.18,0.39-0.42,0.75-0.7,1.08
	c-0.48,0.53-1.19,0.88-1.24,1.16c-0.03,0.17-0.05,0.34-0.05,0.51c-0.06,1.1,0.74,2.07,1.84,2.2c0.96,0.23,1.78-0.14,1.78-0.55v-0.73
	c-0.02-0.21-0.13-0.41-0.31-0.53c-0.13-0.09-0.24-0.18-0.25-0.25c-0.01-0.03,0-0.06,0.02-0.08c0.01-0.01,0.02-0.02,0.04-0.03
	c0.13-0.04,0.27-0.06,0.4-0.07c0.08-0.01,0.16-0.01,0.24-0.01L16.31,12.11z M18.29,8.44C18.28,8.72,18.34,9,18.47,9.26
	c0.69,1.36,1.55,1.78,2.19,1.48c0.64-0.3,0.83-1.19,0.14-2.56c-0.3-0.55-0.84-0.92-1.46-1.01c-0.12-0.01-0.24,0-0.36,0.02
	c-0.64,0.19-1.17,0.63-1.49,1.21c-0.05,0.06-0.03,0.15,0.03,0.2c0.01,0.01,0.02,0.01,0.04,0.02l0.09,0.04
	c0.1,0.04,0.21,0.02,0.29-0.05l0.24-0.22c0.02-0.02,0.04-0.03,0.07-0.04C18.28,8.35,18.29,8.38,18.29,8.44L18.29,8.44z M13.36,7.17
	c-0.62,0.09-1.16,0.47-1.46,1.01c-0.69,1.36-0.51,2.26,0.14,2.56c0.64,0.3,1.5-0.12,2.19-1.48C14.35,9,14.41,8.72,14.4,8.44
	c0-0.1,0.05-0.12,0.12-0.05l0.24,0.21c0.08,0.07,0.19,0.08,0.29,0.05l0.09-0.04c0.07-0.03,0.11-0.11,0.09-0.18
	c0-0.01-0.01-0.02-0.02-0.04c-0.32-0.58-0.86-1.01-1.5-1.21c-0.09-0.01-0.18-0.02-0.27-0.02C13.42,7.17,13.38,7.17,13.36,7.17z
	 M16.33,16.1L16.33,16.1z M16.32,16.1L16.32,16.1z M16.31,16.1L16.31,16.1z M16.31,16.1L16.31,16.1z M17.08,10.37
	c-0.01-0.13,0.1-0.25,0.23-0.25c0.13-0.01,0.25,0.1,0.25,0.23s-0.1,0.25-0.23,0.25c0,0-0.01,0-0.01,0
	C17.2,10.61,17.09,10.51,17.08,10.37C17.08,10.38,17.08,10.38,17.08,10.37L17.08,10.37z M15.27,10.37c-0.01-0.13,0.1-0.25,0.23-0.25
	s0.25,0.1,0.25,0.23c0.01,0.13-0.1,0.25-0.23,0.25c0,0-0.01,0-0.01,0C15.38,10.61,15.27,10.51,15.27,10.37
	C15.27,10.38,15.27,10.37,15.27,10.37L15.27,10.37z M3.35,5.53C2.72,3.28,6.31,3.76,6.31,3.76C5.9,2.01,9.49,1.81,9.49,1.81
	c1.54-2.25,4.62,0.19,4.62,0.19c2.87-2.64,6.46-0.29,6.46-0.29c2.02-1.01,4.48-0.29,5.64,1.66c3.08-0.19,2.36,2.15,2.36,2.15
	L3.35,5.53z"/>
</svg>
