<?xml version="1.0" encoding="utf-8"?>
<!-- Generator: Adobe Illustrator 23.0.2, SVG Export Plug-In . SVG Version: 6.00 Build 0)  -->
<svg version="1.1" id="Layer_1" xmlns="http://www.w3.org/2000/svg" xmlns:xlink="http://www.w3.org/1999/xlink" x="0px" y="0px"
	 viewBox="0 0 32 28" style="enable-background:new 0 0 32 28;" xml:space="preserve">
<style type="text/css">
	.st0{fill:#FFA930;}
	.st1{fill:#5A70E3;}
	.st2{fill:#3591AB;}
	.st3{fill:#E35A6D;}
</style>
<path id="Path_2" class="st0" d="M29.44,2.59c-6.25-5.78-13.41,2.1-13.41,2.1h-0.05c0,0-7.16-7.88-13.41-2.1S1.78,21.7,15.97,27.48
	l0.05,0.07C30.22,21.76,35.69,8.36,29.44,2.59z M16.83,10.05c0.45-1.42,1.65-2.3,2.68-1.97c1.14,0.61,1.6,2,1.06,3.17
	c-0.45,1.42-1.65,2.3-2.68,1.97C16.75,12.61,16.29,11.22,16.83,10.05L16.83,10.05z M13.16,8.04c0.98-0.3,2.17,0.64,2.65,2.09
	s0.08,2.88-0.89,3.18c-0.98,0.3-2.17-0.64-2.65-2.09S12.18,8.33,13.16,8.04L13.16,8.04z M11.56,16.68c-0.93,0.28-2.07-0.61-2.53-2
	s-0.08-2.74,0.85-3.02c0.93-0.28,2.07,0.62,2.53,2C12.87,15.04,12.49,16.4,11.56,16.68L11.56,16.68z M18.21,20.45
	c-0.47-0.49-1.08-0.83-1.74-0.96l-0.2,0.02c-0.67,0.14-1.28,0.47-1.74,0.97c0,0-2.25,1.17-2.23-1.55c-0.19-2.51,1.51-4.78,3.98-5.31
	h0.2c2.47,0.52,4.17,2.79,3.98,5.3C20.46,21.65,18.21,20.45,18.21,20.45L18.21,20.45z M23.8,14.77c-0.43,1.35-1.54,2.22-2.47,1.91
	s-1.34-1.65-0.91-3s1.54-2.22,2.47-1.91C23.82,12.07,24.23,13.4,23.8,14.77L23.8,14.77z"/>
</svg>
