<?xml version="1.0" encoding="utf-8"?>
<!-- Generator: Adobe Illustrator 23.0.2, SVG Export Plug-In . SVG Version: 6.00 Build 0)  -->
<svg version="1.1" id="Layer_1" xmlns="http://www.w3.org/2000/svg" xmlns:xlink="http://www.w3.org/1999/xlink" x="0px" y="0px"
	 viewBox="0 0 32 28" style="enable-background:new 0 0 32 28;" xml:space="preserve">
<style type="text/css">
	.st0{fill:#FFA930;}
	.st1{fill:#5A70E3;}
	.st2{fill:#3591AB;}
	.st3{fill:#E35A6D;}
</style>
<g id="icon_1_">
	<path id="Path_4" class="st1" d="M31.49,14.01L17.01,0.8c-0.47-0.53-1.29-0.58-1.83-0.12c-0.05,0.04-0.09,0.08-0.13,0.12L0.53,14
		c-0.63,0.52-0.71,1.44-0.17,2.06c0.05,0.06,0.11,0.11,0.16,0.16c1.2,1.22,3.5-1.48,3.69-1.69L4.16,25.77
		c-0.1,0.93,0.59,1.76,1.54,1.86c0.13,0.01,0.26,0.01,0.39,0h19.8c0.95,0.11,1.82-0.56,1.93-1.49c0.01-0.12,0.02-0.25,0-0.37
		l-0.04-11.18c0.19,0.21,2.5,2.88,3.7,1.66c0.64-0.54,0.71-1.48,0.16-2.1C31.59,14.1,31.54,14.06,31.49,14.01z"/>
</g>
</svg>
