<?xml version="1.0" encoding="utf-8"?>
<!-- Generator: Adobe Illustrator 23.0.2, SVG Export Plug-In . SVG Version: 6.00 Build 0)  -->
<svg version="1.1" id="Layer_1" xmlns="http://www.w3.org/2000/svg" xmlns:xlink="http://www.w3.org/1999/xlink" x="0px" y="0px"
	 viewBox="0 0 20 32" style="enable-background:new 0 0 20 32;" xml:space="preserve">
<style type="text/css">
	.st0{fill:#FFA930;}
	.st1{fill:#5A70E3;}
	.st2{fill:#3591AB;}
	.st3{fill:#E35A6D;}
</style>
<path id="Icon_metro-location" class="st0" d="M10,0.58c-5.32,0-9.64,4.32-9.64,9.64c0,0,0,0,0,0c0,9.64,9.64,21.21,9.64,21.21
	s9.64-11.57,9.64-21.21C19.64,4.89,15.32,0.58,10,0.58z M10,16.12c-3.26,0-5.9-2.64-5.9-5.9s2.64-5.9,5.9-5.9
	c3.26,0,5.9,2.64,5.9,5.9v0C15.9,13.48,13.26,16.12,10,16.12z M6.26,10.22c0-2.06,1.66-3.74,3.73-3.74s3.74,1.66,3.74,3.73
	s-1.66,3.74-3.73,3.74c0,0-0.01,0-0.01,0C7.94,13.95,6.27,12.28,6.26,10.22L6.26,10.22z"/>
</svg>
