<?xml version="1.0" encoding="utf-8"?>
<!-- Generator: Adobe Illustrator 23.0.2, SVG Export Plug-In . SVG Version: 6.00 Build 0)  -->
<svg version="1.1" id="Layer_1" xmlns="http://www.w3.org/2000/svg" xmlns:xlink="http://www.w3.org/1999/xlink" x="0px" y="0px"
	 viewBox="0 0 30 32" style="enable-background:new 0 0 30 32;" xml:space="preserve">
<style type="text/css">
	.st0{fill:#FFA930;}
	.st1{fill:#5A70E3;}
	.st2{fill:#3591AB;}
	.st3{fill:#E35A6D;}
</style>
<g>
	<g>
		<g>
			<path class="st1" d="M29.33,24.71l-4.63-4.63c-0.92-0.92-2.45-0.89-3.41,0.06l-2.33,2.33c-0.15-0.08-0.3-0.17-0.46-0.26
				c-1.47-0.82-3.49-1.94-5.61-4.06c-2.13-2.13-3.25-4.15-4.07-5.62c-0.09-0.16-0.17-0.31-0.25-0.45l1.57-1.56l0.77-0.77
				c0.96-0.96,0.98-2.48,0.06-3.41L6.33,1.71C5.4,0.79,3.88,0.81,2.92,1.77L1.61,3.08l0.04,0.04c-0.44,0.56-0.8,1.2-1.08,1.9
				C0.32,5.68,0.17,6.31,0.09,6.94c-0.61,5.07,1.71,9.71,8,16c8.69,8.69,15.7,8.04,16,8c0.66-0.08,1.29-0.24,1.93-0.48
				c0.69-0.27,1.33-0.63,1.89-1.07l0.03,0.03l1.32-1.3C30.22,27.16,30.25,25.63,29.33,24.71z"/>
		</g>
	</g>
</g>
</svg>
