<?xml version="1.0" encoding="utf-8"?>
<!-- Generator: Adobe Illustrator 23.0.2, SVG Export Plug-In . SVG Version: 6.00 Build 0)  -->
<svg version="1.1" id="Layer_1" xmlns="http://www.w3.org/2000/svg" xmlns:xlink="http://www.w3.org/1999/xlink" x="0px" y="0px"
	 viewBox="0 0 30 30" style="enable-background:new 0 0 30 30;" xml:space="preserve">
<style type="text/css">
	.st0{fill:#FFA930;}
	.st1{fill:#5A70E3;}
	.st2{fill:#3591AB;}
	.st3{fill:#E35A6D;}
</style>
<path id="Icon_ionic-ios-time" class="st3" d="M15,0.38C6.92,0.38,0.37,6.92,0.37,15S6.92,29.62,15,29.62S29.62,23.08,29.62,15
	C29.63,6.92,23.08,0.38,15,0.38C15,0.38,15,0.38,15,0.38z M15.98,16.27c0,0.54-0.44,0.98-0.98,0.98H8.25
	c-0.54,0-0.98-0.44-0.98-0.98c0-0.54,0.44-0.98,0.98-0.98h5.77V6c0-0.54,0.44-0.98,0.98-0.98c0.54,0,0.98,0.44,0.98,0.98
	L15.98,16.27z"/>
</svg>
