<?xml version="1.0" encoding="utf-8"?>
<!-- Generator: Adobe Illustrator 23.0.2, SVG Export Plug-In . SVG Version: 6.00 Build 0)  -->
<svg version="1.1" id="Layer_1" xmlns="http://www.w3.org/2000/svg" xmlns:xlink="http://www.w3.org/1999/xlink" x="0px" y="0px"
	 viewBox="0 0 32 22" style="enable-background:new 0 0 32 22;" xml:space="preserve">
<style type="text/css">
	.st0{fill:#FFA930;}
	.st1{fill:#5A70E3;}
	.st2{fill:#3591AB;}
	.st3{fill:#E35A6D;}
</style>
<g id="Icon_ionic-ios-people" transform="translate(-2.215 -7.748)">
	<path id="Path_31" class="st2" d="M24.76,24.28c-0.79-0.28-2.07-0.3-2.64-0.51c-0.44-0.11-0.85-0.31-1.22-0.57
		c-0.16-0.65-0.22-1.33-0.2-2c0.29-0.28,0.53-0.61,0.7-0.98c0.17-0.63,0.28-1.28,0.34-1.93c0,0,0.46,0.2,0.65-0.73
		c0.16-0.8,0.45-1.22,0.37-1.81s-0.41-0.45-0.41-0.45c0.36-0.83,0.5-1.73,0.41-2.63c-0.02-2.32-1.92-4.19-4.25-4.17
		c-0.1,0-0.2,0.01-0.29,0.01c-2.32-0.19-4.36,1.55-4.54,3.87c-0.01,0.09-0.01,0.18-0.01,0.27c-0.09,0.9,0.05,1.8,0.4,2.63
		c0,0-0.33-0.14-0.41,0.45s0.21,1.02,0.37,1.82c0.18,0.93,0.65,0.73,0.65,0.73c0.05,0.65,0.17,1.3,0.34,1.93
		c0.17,0.37,0.41,0.7,0.7,0.98c0.02,0.67-0.04,1.35-0.2,2c-0.37,0.26-0.78,0.45-1.22,0.56c-0.56,0.22-1.85,0.25-2.64,0.53
		c-1.96,0.74-3.25,2.63-3.22,4.73h19.56C28.01,26.91,26.73,25.02,24.76,24.28z"/>
	<path id="Path_32" class="st2" d="M10.06,20.86c0.83-0.01,1.64-0.24,2.35-0.65c-1.09-1.65-0.5-3.58-0.72-5.38
		c-0.04-1.64-1.41-2.93-3.04-2.89c-0.08,0-0.16,0.01-0.24,0.02H8.37C6.73,11.8,5.28,13,5.13,14.63c-0.01,0.06-0.01,0.13-0.01,0.19
		c-0.22,1.79,0.4,3.94-0.72,5.38c0.72,0.41,1.53,0.61,2.36,0.58l0,0c0.04,0.39,0.02,0.79-0.07,1.18c-0.24,0.2-0.53,0.34-0.84,0.39
		c-0.62,0.13-1.22,0.3-1.82,0.51c-0.97,0.51-1.59,1.52-1.59,2.62h5.65c0.51-0.92,1.3-1.65,2.25-2.1c0.55-0.23,1.14-0.35,1.74-0.37
		c0,0,0.27-0.42-0.61-0.58c-0.47-0.1-0.92-0.26-1.35-0.47C9.97,21.81,10.06,20.86,10.06,20.86z"/>
	<path id="Path_33" class="st2" d="M26.37,20.86c-0.83-0.01-1.64-0.24-2.35-0.65c1.09-1.65,0.5-3.58,0.72-5.38
		c0.04-1.64,1.41-2.93,3.04-2.89c0.08,0,0.16,0.01,0.24,0.02h0.03c1.64-0.16,3.09,1.04,3.24,2.68c0.01,0.06,0.01,0.13,0.01,0.19
		c0.23,1.79-0.4,3.94,0.72,5.38c-0.72,0.41-1.53,0.61-2.36,0.58l0,0c-0.04,0.39-0.02,0.79,0.07,1.18c0.24,0.2,0.53,0.34,0.84,0.39
		c0.62,0.13,1.22,0.3,1.82,0.51c0.97,0.51,1.59,1.52,1.59,2.62h-5.65c-0.51-0.92-1.3-1.65-2.25-2.1c-0.55-0.23-1.14-0.35-1.74-0.37
		c0,0-0.27-0.42,0.61-0.58c0.47-0.1,0.92-0.26,1.35-0.47C26.46,21.81,26.37,20.86,26.37,20.86z"/>
</g>
</svg>
