<?xml version="1.0" encoding="utf-8"?>
<!-- Generator: Adobe Illustrator 23.0.2, SVG Export Plug-In . SVG Version: 6.00 Build 0)  -->
<svg version="1.1" id="Layer_1" xmlns="http://www.w3.org/2000/svg" xmlns:xlink="http://www.w3.org/1999/xlink" x="0px" y="0px"
	 viewBox="0 0 140.37 104.16" style="enable-background:new 0 0 140.37 104.16;" xml:space="preserve">
<style type="text/css">
	.st0{display:none;fill:#fff;}
	.st1{fill:#fff;}
</style>
<path class="st0" d="M76.56-273.93c-0.13-0.17-0.25-0.33-0.32-0.47c-1.4-2.93-5.19-6.38-11.3-6.42l-0.24,0
	c-6.01,0.05-9.73,3.36-11.2,6.45c-0.05,0.11-0.16,0.24-0.28,0.39c-0.14,0.17-0.28,0.34-0.4,0.53c-1.25,1.98-1.88,4.2-1.77,6.25
	c0.12,2.18,1.04,3.93,2.6,4.91c0.63,0.4,1.31,0.6,2.02,0.59c1.47-0.01,2.8-0.85,4.35-1.81c0.98-0.62,2-1.25,3.13-1.73
	c0.13-0.04,0.65-0.11,1.5-0.12c1.01-0.01,1.74,0.08,1.9,0.13c1.11,0.48,2.09,1.11,3.03,1.73c1.45,0.94,2.82,1.83,4.29,1.82
	c0.63,0,1.25-0.18,1.82-0.51c3.18-1.84,3.76-6.83,1.28-11.12C76.86-273.53,76.71-273.73,76.56-273.93z"/>
<text transform="matrix(1 0 0 1 70.1842 435.2474)" class="st1" style="font-family:'Nunito-Bold'; font-size:30px; letter-spacing:2;">PAWNDATION</text>
<text transform="matrix(1 0 0 1 76.4448 451.6683)" class="st1" style="font-family:'OpenSans-Semibold'; font-size:10px; letter-spacing:1;">Animal Shelter</text>
<g>
	<path class="st1" d="M47.32,45.31c9.25-0.07,16.7-10.22,16.6-22.63C63.83,10.27,56.24,0.22,46.99,0.29
		c-9.25,0.07-16.69,10.22-16.6,22.64C30.48,35.34,38.08,45.38,47.32,45.31z"/>
	<path class="st1" d="M92.92,45.02c9.24-0.07,16.69-10.22,16.6-22.63C109.43,9.97,101.83-0.07,92.58,0
		c-9.25,0.07-16.7,10.22-16.6,22.64C76.07,35.05,83.67,45.09,92.92,45.02z"/>
	<path class="st1" d="M125.13,39.14c-8.46,0.06-15.02,8.89-14.93,20.09c0.08,11.2,6.78,19.92,15.23,19.86
		c8.46-0.06,15.02-8.89,14.94-20.08C140.28,47.8,133.59,39.08,125.13,39.14z"/>
	<path class="st1" d="M30.17,59.77c-0.08-11.2-6.78-19.93-15.23-19.86C6.48,39.97-0.08,48.79,0,59.99
		c0.08,11.2,6.78,19.92,15.23,19.86S30.25,70.96,30.17,59.77z"/>
	<path class="st1" d="M44.88,104.16c5.93-4.06,14.71-6.64,24.71-6.71c10.12-0.08,19.03,2.43,25.02,6.48l2.25-22.46h4.52v-9.04
		c0,0-31.64-18.08-31.64-18.08L38.09,72.42v9.04h4.52L44.88,104.16z"/>
</g>
</svg>
